# xmcd
#
# Track frame offsets:
#	150
#	12227
#	22660
#	33415
#	42492
#	54275
#	64097
#	76477
#	88657
#	99692
#	111640
#	125150
#	138217
#
# Disc length: 1986 seconds
#
# Revision: 2
# Processed by: cddbd v1.5.2PL0 Copyright (c) Steve Scherf et al.
# Submitted via: EasyCDDAExtractor 10.5.1.1
#
DISCID=ab07c00d
DTITLE=Tammy Wynette - Stand By Your Man
DYEAR=1999
DGENRE=Country
TTITLE0=Stand By Your Man
TTITLE1=It's My Way
TTITLE2=Forever Yours
TTITLE3=I Stayed Long Enough
TTITLE4=It Keeps Slipping My Mind
TTITLE5=My Arms Stay Open Late
TTITLE6=I've Learned
TTITLE7=Cry, Cry Again
TTITLE8=Joey
TTITLE9=If I Were A Little Girl
TTITLE10=Don't Make Me Go To School
TTITLE11=I'm Only A Woman
TTITLE12=There's Quite a Difference
EXTD=
EXTT0=
EXTT1=
EXTT2=
EXTT3=
EXTT4=
EXTT5=
EXTT6=
EXTT7=
EXTT8=
EXTT9=
EXTT10=
EXTT11=
EXTT12=
PLAYORDER=
